<svg xmlns="http://www.w3.org/2000/svg" xmlns:xlink="http://www.w3.org/1999/xlink" id="Layer_1" x="0px" y="0px" viewBox="0 0 1020 337" style="enable-background:new 0 0 1020 337;" xml:space="preserve"><style type="text/css">	.st0{fill:#AA182C;}	.st1{fill:#221F1F;}	.st2{font-family:'GillSansStd';}	.st3{font-size:49.9862px;}	.st4{letter-spacing:0.93;}</style><g>	<g>		<path class="st0" d="M251.18,73.01c-5.52-1.16-10.98-0.79-15.27,1.14c-2.11,0.94-4.85,2.71-6.06,5.74   c-2.32,6.24,3.59,14.42,13.25,18.24c17.49,7,29.86,23.18,29.86,42c0,25.18-22.04,45.68-49.15,45.68   c-27.12,0-49.19-20.49-49.19-45.68c0-17.17,10.37-32.15,25.5-39.94c0.46,1.25,2.2,5.5,5.78,9.98c3.36,4.29,6.79,7.08,8.31,8.26   l0.33,0.41c-8.99,3.43-15.43,11.66-15.43,21.28c0,12.68,11.06,23.01,24.72,23.01c13.6,0,24.71-10.33,24.71-23.01   c0-8.92-5.54-16.73-13.6-20.49c-0.33-0.19-0.64-0.36-1.01-0.54c-4.09-1.77-11.71-4.95-18.54-12.31c-4-4.37-7.23-10.21-7.23-10.21   l0,0c-3.63-7.72-4.33-16.17-1.22-24.19c0.25-0.83,0.69-1.66,1.03-2.48c-34.96,6.75-61.35,35.62-61.35,70.21   c0,39.62,34.62,71.79,77.23,71.79c42.66,0,77.23-32.16,77.23-71.79C301.05,109.46,280.3,83.29,251.18,73.01z"></path>		<g>			<path class="st1" d="M800.91,198.74c-15.02,0-29.65-6.72-29.65-26.07v-46.89v-16.53V87.2h20.29v22.06h35.11v18.71h-35.11v40.86    c0,9.96,5.42,12.68,13.08,12.68c7.2,0,14.02-2.5,20.43-5.78l7.64,14.86C824.07,195.12,814.35,198.74,800.91,198.74z"></path>			<path class="st1" d="M679.86,175.12c-0.04-0.28-0.13-0.54-0.13-0.84v-65.51c-8.13-1.13-19.99-1.84-28.59-1.84    c-20.26,0-34.14,3.98-44.83,10.69c-15.18,9.45-23.61,24.61-23.61,43.06c0,26.08,17.92,38.06,37.27,38.06    c17.92,0,31.94-8.7,39.92-23.01h0.43c0,1.84,0.15,3.44,0.36,4.89c1.58,11.66,9.67,16.18,19.18,17.05V175.12z M659.53,126.47    c0,38.04-19.85,55.04-36.82,55.04c-11.09,0-18.72-7.23-18.72-21.54c0-11.59,5.06-21.36,14.04-27.68    c7.41-5.21,17.49-8.13,29.99-8.13c4.26,0,7.58,0.14,11.52,0.53V126.47z"></path>			<path class="st1" d="M760.14,107.04c-18.29,0.53-33.49,11.2-40.9,28.97h-0.36v-26.65h-20.32v16.51v71.19h20.32v-8.7    c0-9.96,0.97-18.82,3.48-26.62c6.68-20.49,20.49-33.19,37.67-33.71l0.1-0.97V107.04z"></path>			<path class="st1" d="M573.94,175.37v-39.99c0-18.31-11.34-28.44-30.84-28.44c-13.77,0-24.38,4.91-32.4,12.87    c-4.84-8.37-14.09-12.87-27.06-12.87c-13.93,0-24.62,4.98-32.64,13.03c-3.14-5.63-8.39-9.5-15.4-11.48v77.69    c2.72,7.33,9.67,11.01,19.08,11.58v-21.46c-0.06-0.29-0.06-0.59-0.06-0.91v-36.81c6.68-8.84,15.35-14.41,25.29-14.41    c9.93,0,14.21,5.03,14.21,16.08v38.18c0,12.57,8.01,18.61,20.36,19.33v-21.46c0-0.29-0.06-0.59-0.06-0.91v-37.24    c6.61-8.56,15.17-13.98,24.96-13.98c9.97,0,14.21,5.03,14.21,16.08v38.18c0,12.57,8.01,18.61,20.42,19.33v-21.46    C573.94,175.99,573.94,175.69,573.94,175.37z"></path>			<path class="st1" d="M381.64,134.26c-17.07-4.48-31.73-8.31-30.05-18.56c1.28-8.3,12.34-11.77,30.21-9.29    c18.28,2.57,33.19,10.45,38.73,13.8l1.1,0.62V99.7c-11.31-5.46-24.85-9.65-38.25-11.52c-5.11-0.71-10.03-1.06-14.65-1.06    c-23.72,0-38.86,9.53-41.59,26.11c-1.56,9.75,1.34,17.42,8.74,23.48c9.12,7.54,23.8,11.37,36.73,14.73    c16.43,4.27,30.66,7.99,29.16,17.48c-1.59,9.65-13.5,11.7-23.22,11.7c-3.86,0-8.16-0.35-12.79-0.97    c-14.56-2.05-27.52-6.96-38.62-14.48v22.17c8.89,4.26,20.49,8.23,35.54,10.32c5.66,0.77,11.28,1.2,16.54,1.2    c26.95,0,44.03-9.97,46.82-27.39C430.09,146.91,404.28,140.18,381.64,134.26z"></path>		</g>	</g>	<g>		<text transform="matrix(1.0763 0 0 1 325.0562 267.0857)" class="st0 st2 st3 st4">Secure, Fast, Access</text>	</g></g></svg>